# xmcd CD database file
#
# Track frame offsets:
#	150
#	18525
#	35775
#	51225
#	71328
#	92780
#	111380
#	130358
#	148883
#	168308
#
# Disc length: 2463 seconds
#
# Revision: 1
# Processed by: cddbd v1.4PL0 Copyright (c) Steve Scherf et al.
# Submitted via: CDex 1.50beta10
#
DISCID=96099d0a
DTITLE=Arturo Arango Y Alex Arias - Con Distincion
DYEAR=1995
DGENRE=Salsa
TTITLE0=De Nuevo Enamorado
TTITLE1=Te Voy A Extrañar
TTITLE2=Decia Que Me Queria
TTITLE3=Ayudame A Olvidarte
TTITLE4=Aventurera
TTITLE5=Mejor Me Muero
TTITLE6=Volver A Enamorarte
TTITLE7=Epiñas
TTITLE8=Un Beso Y Una Flor
TTITLE9=Pa'Los Salseros
EXTD=YEAR: 1995
EXTT0=
EXTT1=
EXTT2=
EXTT3=
EXTT4=
EXTT5=
EXTT6=
EXTT7=
EXTT8=
EXTT9=
PLAYORDER=
